<svg width="101" height="37" viewBox="0 0 101 37" fill="none" xmlns="http://www.w3.org/2000/svg">
<path d="M10.6395 7.06268H11.7787V7.13227H10.6395V7.06268Z" fill="black" stroke="black"/>
<path d="M10.6395 9.20184H11.7787V9.27143H10.6395V9.20184Z" fill="black" stroke="black"/>
<path d="M10.6395 11.341H11.7787V11.4106H10.6395V11.341Z" fill="black" stroke="black"/>
<path d="M19.187 7.59753C19.108 7.84356 18.9711 8.06978 18.785 8.2559C18.5989 8.44202 18.3727 8.57884 18.1266 8.65794V8.58499C18.3541 8.50839 18.5632 8.37994 18.7361 8.20703C18.9091 8.03411 19.0375 7.82502 19.1141 7.59753H19.187Z" fill="black" stroke="black"/>
<path d="M21.2815 8.79069C21.0953 8.60457 20.9585 8.37835 20.8794 8.13232H20.9524C21.029 8.35981 21.1574 8.5689 21.3303 8.74182C21.5033 8.91473 21.7123 9.04318 21.9398 9.11978V9.19273C21.6938 9.11363 21.4676 8.97681 21.2815 8.79069Z" fill="black" stroke="black"/>
<mask id="path-6-inside-1" fill="white">
<path d="M28.0545 33.0505C27.1517 33.2146 26.2308 33.2558 25.3169 33.1728L16.0182 32.3274C15.8687 32.3138 15.7303 32.2431 15.6316 32.13C15.5329 32.0169 15.4816 31.8702 15.4884 31.7202C15.4952 31.5703 15.5595 31.4287 15.6679 31.325C15.7764 31.2212 15.9207 31.1633 16.0707 31.1632H23.2419C23.5965 31.1626 23.9365 31.0214 24.1871 30.7705C24.4378 30.5196 24.5787 30.1796 24.5789 29.8249V29.8124C24.5783 29.5314 24.4871 29.2581 24.3189 29.033L23.0944 27.4011C23.0168 27.2972 22.9748 27.1711 22.9745 27.0415V26.9498C22.9745 26.8312 23.0097 26.7152 23.0756 26.6166C23.1414 26.518 23.2351 26.4411 23.3447 26.3957C23.4542 26.3504 23.5748 26.3385 23.6911 26.3616C23.8075 26.3848 23.9143 26.4419 23.9982 26.5257L26.3399 28.8674C26.3896 28.9171 26.4485 28.9565 26.5134 28.9833C26.5783 29.0102 26.6478 29.024 26.7181 29.024H32.6008V27.9544H26.9395L24.7546 25.7693C24.6996 25.7145 24.6409 25.6635 24.5789 25.6167V13.5151C24.5789 13.3732 24.5225 13.2372 24.4223 13.1369C24.322 13.0366 24.1859 12.9803 24.0441 12.9803H23.5093V11.3759H24.3115C24.8079 11.3759 25.284 11.1787 25.635 10.8277C25.9861 10.4766 26.1833 10.0005 26.1833 9.50412C26.1833 9.00769 25.9861 8.5316 25.635 8.18057C25.284 7.82955 24.8079 7.63234 24.3115 7.63234H24.2562C24.524 7.31152 24.6616 6.90194 24.6421 6.48452C24.6225 6.06711 24.4471 5.67222 24.1505 5.37786C23.8539 5.0835 23.4576 4.91108 23.0401 4.89467C22.6225 4.87826 22.214 5.01905 21.8952 5.28922C21.8446 4.7595 21.5984 4.26766 21.2047 3.90973C20.8109 3.55179 20.2979 3.35346 19.7658 3.35346C19.2336 3.35346 18.7206 3.55179 18.3269 3.90973C17.9331 4.26766 17.6869 4.7595 17.6363 5.28922C17.3175 5.01905 16.909 4.87826 16.4914 4.89467C16.0739 4.91108 15.6777 5.0835 15.3811 5.37786C15.0845 5.67222 14.909 6.06711 14.8895 6.48452C14.8699 6.90194 15.0076 7.31152 15.2753 7.63234H15.22C14.9425 7.63209 14.6684 7.69392 14.4178 7.8133V5.49318C14.4178 4.64216 14.0798 3.826 13.478 3.22425C12.8763 2.62249 12.0601 2.28442 11.2091 2.28442C10.3581 2.28442 9.54191 2.62249 8.94015 3.22425C8.3384 3.826 8.00033 4.64216 8.00033 5.49318V12.9803H7.46554C7.32371 12.9803 7.18768 13.0366 7.08739 13.1369C6.98709 13.2372 6.93075 13.3732 6.93075 13.5151V15.8667L4.05898 18.3282H0.513245V19.3978H4.25679C4.38444 19.3978 4.50788 19.3521 4.60481 19.269L7.70446 16.6122C8.02312 16.3392 8.42885 16.1891 8.84845 16.189C8.89225 16.189 8.93507 16.202 8.97149 16.2264C9.00791 16.2507 9.03629 16.2853 9.05305 16.3258C9.06981 16.3662 9.07419 16.4108 9.06564 16.4537C9.05709 16.4967 9.03599 16.5361 9.00501 16.5671L7.08738 18.4848C7.01258 18.5596 6.96164 18.6549 6.94101 18.7586C6.92037 18.8624 6.93096 18.9699 6.97144 19.0676C7.01192 19.1654 7.08047 19.2489 7.16842 19.3076C7.25637 19.3664 7.35977 19.3978 7.46554 19.3978H13.0809C13.1518 19.3978 13.2198 19.4259 13.2699 19.4761C13.3201 19.5262 13.3483 19.5942 13.3483 19.6652C13.3483 19.7361 13.3201 19.8041 13.2699 19.8542C13.2198 19.9044 13.1518 19.9326 13.0809 19.9326H9.06992C8.92808 19.9326 8.79206 19.9889 8.69176 20.0892C8.59147 20.1895 8.53513 20.3255 8.53513 20.4674C8.53513 20.6092 8.59147 20.7452 8.69176 20.8455C8.79206 20.9458 8.92808 21.0021 9.06992 21.0021H14.6852C14.7562 21.0021 14.8242 21.0303 14.8743 21.0805C14.9245 21.1306 14.9526 21.1986 14.9526 21.2695C14.9526 21.3405 14.9245 21.4085 14.8743 21.4586C14.8242 21.5088 14.7562 21.5369 14.6852 21.5369H9.06992C8.92808 21.5369 8.79206 21.5933 8.69176 21.6936C8.59147 21.7939 8.53513 21.9299 8.53513 22.0717C8.53513 22.2136 8.59147 22.3496 8.69176 22.4499C8.79206 22.5502 8.92808 22.6065 9.06992 22.6065H13.6157C13.6866 22.6065 13.7546 22.6347 13.8047 22.6848C13.8549 22.735 13.883 22.803 13.883 22.8739C13.883 22.9448 13.8549 23.0128 13.8047 23.063C13.7546 23.1131 13.6866 23.1413 13.6157 23.1413H9.06992C8.92808 23.1413 8.79206 23.1977 8.69176 23.298C8.59147 23.3982 8.53513 23.5343 8.53513 23.6761C8.53513 23.8179 8.59147 23.954 8.69176 24.0543C8.79206 24.1546 8.92808 24.2109 9.06992 24.2109H11.7105C11.7187 24.2113 11.7264 24.2147 11.7323 24.2205C11.7381 24.2263 11.7417 24.234 11.7422 24.2422C11.7427 24.2504 11.7401 24.2585 11.735 24.265C11.7299 24.2715 11.7226 24.2758 11.7145 24.2772L8.04218 24.7363L4.40386 23.6967C4.35603 23.683 4.30653 23.6761 4.25679 23.6761H0.513245V24.7457H4.18192L6.93075 25.5311V30.6284H6.93202C6.93151 30.6987 6.94496 30.7683 6.97158 30.8334C6.9982 30.8984 7.03745 30.9575 7.08708 31.0072C7.13671 31.057 7.19571 31.0964 7.26068 31.1232C7.32564 31.1499 7.39528 31.1635 7.46554 31.1632H14.5248C14.4348 31.4015 14.4011 31.6573 14.4263 31.9108C14.4515 32.1642 14.535 32.4084 14.6702 32.6242C14.8055 32.8401 14.9887 33.0218 15.2058 33.155C15.4228 33.2883 15.6677 33.3696 15.9214 33.3926L25.22 34.2382C25.5584 34.2691 25.8973 34.2845 26.2367 34.2844C26.9105 34.2844 27.5829 34.2238 28.2458 34.1033L32.6964 33.2941L32.5051 32.2417L28.0545 33.0505ZM13.3483 10.8411C13.3484 10.6993 13.4048 10.5634 13.5051 10.4631C13.6053 10.3629 13.7413 10.3065 13.883 10.3063H14.9526C15.5198 10.3069 16.0635 10.5325 16.4645 10.9336C16.8656 11.3346 17.0912 11.8783 17.0918 12.4455C17.0916 12.5873 17.0352 12.7232 16.935 12.8235C16.8347 12.9237 16.6988 12.9801 16.557 12.9803H15.4874C14.9203 12.9796 14.3765 12.754 13.9755 12.353C13.5745 11.952 13.3489 11.4082 13.3483 10.8411ZM15.22 8.70193H16.557C16.6628 8.70193 16.7662 8.67057 16.8541 8.61181C16.9421 8.55304 17.0106 8.46952 17.0511 8.3718C17.0916 8.27407 17.1022 8.16654 17.0815 8.0628C17.0609 7.95906 17.01 7.86376 16.9352 7.78897L16.133 6.98678C16.0773 6.9311 16.0331 6.86499 16.003 6.79224C15.9729 6.71949 15.9573 6.64151 15.9573 6.56276C15.9573 6.48401 15.9729 6.40603 16.003 6.33328C16.0331 6.26053 16.0773 6.19442 16.133 6.13874C16.1887 6.08305 16.2548 6.03888 16.3275 6.00875C16.4003 5.97861 16.4783 5.9631 16.557 5.9631C16.6358 5.9631 16.7137 5.97861 16.7865 6.00875C16.8592 6.03888 16.9253 6.08305 16.981 6.13874L17.7832 6.94093C17.858 7.01572 17.9533 7.06666 18.057 7.08729C18.1608 7.10793 18.2683 7.09734 18.366 7.05686C18.4638 7.01638 18.5473 6.94783 18.6061 6.85989C18.6648 6.77194 18.6962 6.66854 18.6962 6.56276V5.49318C18.6962 5.2095 18.8089 4.93745 19.0094 4.73687C19.21 4.53628 19.4821 4.42359 19.7658 4.42359C20.0494 4.42359 20.3215 4.53628 20.5221 4.73687C20.7227 4.93745 20.8353 5.2095 20.8353 5.49318V6.56276C20.8353 6.66854 20.8667 6.77194 20.9255 6.85989C20.9842 6.94783 21.0678 7.01638 21.1655 7.05686C21.2632 7.09734 21.3707 7.10793 21.4745 7.08729C21.5782 7.06666 21.6735 7.01572 21.7483 6.94093L22.5505 6.13874C22.6062 6.08305 22.6723 6.03888 22.745 6.00875C22.8178 5.97861 22.8958 5.9631 22.9745 5.9631C23.0533 5.9631 23.1312 5.97861 23.204 6.00875C23.2767 6.03888 23.3429 6.08305 23.3985 6.13874C23.4542 6.19442 23.4984 6.26053 23.5285 6.33328C23.5587 6.40603 23.5742 6.48401 23.5742 6.56276C23.5742 6.64151 23.5587 6.71949 23.5285 6.79224C23.4984 6.86499 23.4542 6.9311 23.3985 6.98678L22.5963 7.78897C22.5215 7.86376 22.4706 7.95906 22.45 8.0628C22.4293 8.16654 22.4399 8.27407 22.4804 8.3718C22.5209 8.46952 22.5894 8.55304 22.6774 8.61181C22.7653 8.67057 22.8687 8.70193 22.9745 8.70193H24.3115C24.5242 8.70193 24.7283 8.78644 24.8787 8.93688C25.0292 9.08732 25.1137 9.29136 25.1137 9.50412C25.1137 9.71687 25.0292 9.92091 24.8787 10.0713C24.7283 10.2218 24.5242 10.3063 24.3115 10.3063H22.9745C22.8327 10.3063 22.6966 10.3626 22.5964 10.4629C22.4961 10.5632 22.4397 10.6993 22.4397 10.8411V11.1259C21.8157 10.5655 20.9967 10.2723 20.1588 10.3095C19.3208 10.3466 18.531 10.711 17.959 11.3245C17.7298 10.7119 17.3192 10.1839 16.782 9.81084C16.2448 9.43779 15.6066 9.23751 14.9526 9.23672H14.4646C14.52 9.08052 14.6223 8.94527 14.7575 8.84952C14.8928 8.75377 15.0543 8.70222 15.22 8.70193V8.70193ZM22.372 12.9803H18.2291C18.3475 12.5209 18.6153 12.1139 18.9903 11.8233C19.3652 11.5328 19.8262 11.3751 20.3006 11.3751C20.7749 11.3751 21.2359 11.5328 21.6108 11.8233C21.9858 12.1139 22.2536 12.5209 22.372 12.9803ZM9.06992 5.49318C9.06992 4.92583 9.29529 4.38173 9.69647 3.98056C10.0976 3.57938 10.6417 3.35401 11.2091 3.35401C11.7764 3.35401 12.3205 3.57938 12.7217 3.98056C13.1229 4.38173 13.3483 4.92583 13.3483 5.49318V9.3287C13.0357 9.43961 12.7651 9.64451 12.5736 9.91528C12.3821 10.1861 12.2791 10.5094 12.2787 10.8411C12.2781 11.6309 12.5701 12.393 13.0983 12.9803H9.06992V5.49318ZM10.1395 14.0498H11.2091V18.3282H10.1395V14.0498ZM8.84845 15.1194C8.56074 15.1196 8.27474 15.1636 8.00033 15.2501V14.0498H9.06992V15.1398C8.99682 15.1267 8.92272 15.1199 8.84845 15.1194V15.1194ZM9.06992 18.0149V18.3282H8.7566L9.06992 18.0149ZM10.1395 25.552L11.2091 25.4183V29.3372L10.1395 28.2676V25.552ZM8.06665 25.8111L9.06992 25.6857V28.2677L8.00033 29.3373V25.8153C8.0225 25.8153 8.04465 25.8139 8.06665 25.8111V25.8111ZM8.7566 30.0936L9.60471 29.2455L10.4528 30.0936H8.7566ZM12.2787 25.188C12.4415 25.09 12.5763 24.9516 12.67 24.7863C12.7637 24.621 12.8131 24.4342 12.8135 24.2442C12.8135 24.233 12.8135 24.2219 12.8129 24.2108H13.6157C13.8157 24.2107 14.0131 24.1657 14.1935 24.0792C14.3738 23.9927 14.5325 23.8668 14.6578 23.7109C14.7831 23.555 14.8718 23.3729 14.9174 23.1781C14.963 22.9834 14.9643 22.7809 14.9213 22.5855C15.2502 22.5266 15.545 22.3466 15.7478 22.0811C15.9506 21.8156 16.0467 21.4838 16.0171 21.151C15.9875 20.8182 15.8343 20.5086 15.5878 20.2831C15.3413 20.0576 15.0193 19.9325 14.6852 19.9326H14.3911C14.4306 19.7383 14.4264 19.5377 14.3789 19.3453C14.3313 19.1528 14.2416 18.9734 14.1162 18.8198C13.9909 18.6663 13.8329 18.5425 13.6539 18.4575C13.4748 18.3725 13.2791 18.3283 13.0809 18.3282H12.2787V14.0498H23.5093V25.2822C23.0784 25.2994 22.6708 25.4826 22.3718 25.7934C22.0728 26.1042 21.9055 26.5185 21.9049 26.9498V27.0415C21.9057 27.4026 22.0229 27.7539 22.2392 28.0431L23.4636 29.6749C23.4933 29.7146 23.5094 29.7628 23.5095 29.8124V29.8249C23.5096 29.896 23.4815 29.9643 23.4313 30.0146C23.3811 30.065 23.313 30.0934 23.2419 30.0936H12.2787V25.188Z"/>
</mask>
<path d="M28.0545 33.0505C27.1517 33.2146 26.2308 33.2558 25.3169 33.1728L16.0182 32.3274C15.8687 32.3138 15.7303 32.2431 15.6316 32.13C15.5329 32.0169 15.4816 31.8702 15.4884 31.7202C15.4952 31.5703 15.5595 31.4287 15.6679 31.325C15.7764 31.2212 15.9207 31.1633 16.0707 31.1632H23.2419C23.5965 31.1626 23.9365 31.0214 24.1871 30.7705C24.4378 30.5196 24.5787 30.1796 24.5789 29.8249V29.8124C24.5783 29.5314 24.4871 29.2581 24.3189 29.033L23.0944 27.4011C23.0168 27.2972 22.9748 27.1711 22.9745 27.0415V26.9498C22.9745 26.8312 23.0097 26.7152 23.0756 26.6166C23.1414 26.518 23.2351 26.4411 23.3447 26.3957C23.4542 26.3504 23.5748 26.3385 23.6911 26.3616C23.8075 26.3848 23.9143 26.4419 23.9982 26.5257L26.3399 28.8674C26.3896 28.9171 26.4485 28.9565 26.5134 28.9833C26.5783 29.0102 26.6478 29.024 26.7181 29.024H32.6008V27.9544H26.9395L24.7546 25.7693C24.6996 25.7145 24.6409 25.6635 24.5789 25.6167V13.5151C24.5789 13.3732 24.5225 13.2372 24.4223 13.1369C24.322 13.0366 24.1859 12.9803 24.0441 12.9803H23.5093V11.3759H24.3115C24.8079 11.3759 25.284 11.1787 25.635 10.8277C25.9861 10.4766 26.1833 10.0005 26.1833 9.50412C26.1833 9.00769 25.9861 8.5316 25.635 8.18057C25.284 7.82955 24.8079 7.63234 24.3115 7.63234H24.2562C24.524 7.31152 24.6616 6.90194 24.6421 6.48452C24.6225 6.06711 24.4471 5.67222 24.1505 5.37786C23.8539 5.0835 23.4576 4.91108 23.0401 4.89467C22.6225 4.87826 22.214 5.01905 21.8952 5.28922C21.8446 4.7595 21.5984 4.26766 21.2047 3.90973C20.8109 3.55179 20.2979 3.35346 19.7658 3.35346C19.2336 3.35346 18.7206 3.55179 18.3269 3.90973C17.9331 4.26766 17.6869 4.7595 17.6363 5.28922C17.3175 5.01905 16.909 4.87826 16.4914 4.89467C16.0739 4.91108 15.6777 5.0835 15.3811 5.37786C15.0845 5.67222 14.909 6.06711 14.8895 6.48452C14.8699 6.90194 15.0076 7.31152 15.2753 7.63234H15.22C14.9425 7.63209 14.6684 7.69392 14.4178 7.8133V5.49318C14.4178 4.64216 14.0798 3.826 13.478 3.22425C12.8763 2.62249 12.0601 2.28442 11.2091 2.28442C10.3581 2.28442 9.54191 2.62249 8.94015 3.22425C8.3384 3.826 8.00033 4.64216 8.00033 5.49318V12.9803H7.46554C7.32371 12.9803 7.18768 13.0366 7.08739 13.1369C6.98709 13.2372 6.93075 13.3732 6.93075 13.5151V15.8667L4.05898 18.3282H0.513245V19.3978H4.25679C4.38444 19.3978 4.50788 19.3521 4.60481 19.269L7.70446 16.6122C8.02312 16.3392 8.42885 16.1891 8.84845 16.189C8.89225 16.189 8.93507 16.202 8.97149 16.2264C9.00791 16.2507 9.03629 16.2853 9.05305 16.3258C9.06981 16.3662 9.07419 16.4108 9.06564 16.4537C9.05709 16.4967 9.03599 16.5361 9.00501 16.5671L7.08738 18.4848C7.01258 18.5596 6.96164 18.6549 6.94101 18.7586C6.92037 18.8624 6.93096 18.9699 6.97144 19.0676C7.01192 19.1654 7.08047 19.2489 7.16842 19.3076C7.25637 19.3664 7.35977 19.3978 7.46554 19.3978H13.0809C13.1518 19.3978 13.2198 19.4259 13.2699 19.4761C13.3201 19.5262 13.3483 19.5942 13.3483 19.6652C13.3483 19.7361 13.3201 19.8041 13.2699 19.8542C13.2198 19.9044 13.1518 19.9326 13.0809 19.9326H9.06992C8.92808 19.9326 8.79206 19.9889 8.69176 20.0892C8.59147 20.1895 8.53513 20.3255 8.53513 20.4674C8.53513 20.6092 8.59147 20.7452 8.69176 20.8455C8.79206 20.9458 8.92808 21.0021 9.06992 21.0021H14.6852C14.7562 21.0021 14.8242 21.0303 14.8743 21.0805C14.9245 21.1306 14.9526 21.1986 14.9526 21.2695C14.9526 21.3405 14.9245 21.4085 14.8743 21.4586C14.8242 21.5088 14.7562 21.5369 14.6852 21.5369H9.06992C8.92808 21.5369 8.79206 21.5933 8.69176 21.6936C8.59147 21.7939 8.53513 21.9299 8.53513 22.0717C8.53513 22.2136 8.59147 22.3496 8.69176 22.4499C8.79206 22.5502 8.92808 22.6065 9.06992 22.6065H13.6157C13.6866 22.6065 13.7546 22.6347 13.8047 22.6848C13.8549 22.735 13.883 22.803 13.883 22.8739C13.883 22.9448 13.8549 23.0128 13.8047 23.063C13.7546 23.1131 13.6866 23.1413 13.6157 23.1413H9.06992C8.92808 23.1413 8.79206 23.1977 8.69176 23.298C8.59147 23.3982 8.53513 23.5343 8.53513 23.6761C8.53513 23.8179 8.59147 23.954 8.69176 24.0543C8.79206 24.1546 8.92808 24.2109 9.06992 24.2109H11.7105C11.7187 24.2113 11.7264 24.2147 11.7323 24.2205C11.7381 24.2263 11.7417 24.234 11.7422 24.2422C11.7427 24.2504 11.7401 24.2585 11.735 24.265C11.7299 24.2715 11.7226 24.2758 11.7145 24.2772L8.04218 24.7363L4.40386 23.6967C4.35603 23.683 4.30653 23.6761 4.25679 23.6761H0.513245V24.7457H4.18192L6.93075 25.5311V30.6284H6.93202C6.93151 30.6987 6.94496 30.7683 6.97158 30.8334C6.9982 30.8984 7.03745 30.9575 7.08708 31.0072C7.13671 31.057 7.19571 31.0964 7.26068 31.1232C7.32564 31.1499 7.39528 31.1635 7.46554 31.1632H14.5248C14.4348 31.4015 14.4011 31.6573 14.4263 31.9108C14.4515 32.1642 14.535 32.4084 14.6702 32.6242C14.8055 32.8401 14.9887 33.0218 15.2058 33.155C15.4228 33.2883 15.6677 33.3696 15.9214 33.3926L25.22 34.2382C25.5584 34.2691 25.8973 34.2845 26.2367 34.2844C26.9105 34.2844 27.5829 34.2238 28.2458 34.1033L32.6964 33.2941L32.5051 32.2417L28.0545 33.0505ZM13.3483 10.8411C13.3484 10.6993 13.4048 10.5634 13.5051 10.4631C13.6053 10.3629 13.7413 10.3065 13.883 10.3063H14.9526C15.5198 10.3069 16.0635 10.5325 16.4645 10.9336C16.8656 11.3346 17.0912 11.8783 17.0918 12.4455C17.0916 12.5873 17.0352 12.7232 16.935 12.8235C16.8347 12.9237 16.6988 12.9801 16.557 12.9803H15.4874C14.9203 12.9796 14.3765 12.754 13.9755 12.353C13.5745 11.952 13.3489 11.4082 13.3483 10.8411ZM15.22 8.70193H16.557C16.6628 8.70193 16.7662 8.67057 16.8541 8.61181C16.9421 8.55304 17.0106 8.46952 17.0511 8.3718C17.0916 8.27407 17.1022 8.16654 17.0815 8.0628C17.0609 7.95906 17.01 7.86376 16.9352 7.78897L16.133 6.98678C16.0773 6.9311 16.0331 6.86499 16.003 6.79224C15.9729 6.71949 15.9573 6.64151 15.9573 6.56276C15.9573 6.48401 15.9729 6.40603 16.003 6.33328C16.0331 6.26053 16.0773 6.19442 16.133 6.13874C16.1887 6.08305 16.2548 6.03888 16.3275 6.00875C16.4003 5.97861 16.4783 5.9631 16.557 5.9631C16.6358 5.9631 16.7137 5.97861 16.7865 6.00875C16.8592 6.03888 16.9253 6.08305 16.981 6.13874L17.7832 6.94093C17.858 7.01572 17.9533 7.06666 18.057 7.08729C18.1608 7.10793 18.2683 7.09734 18.366 7.05686C18.4638 7.01638 18.5473 6.94783 18.6061 6.85989C18.6648 6.77194 18.6962 6.66854 18.6962 6.56276V5.49318C18.6962 5.2095 18.8089 4.93745 19.0094 4.73687C19.21 4.53628 19.4821 4.42359 19.7658 4.42359C20.0494 4.42359 20.3215 4.53628 20.5221 4.73687C20.7227 4.93745 20.8353 5.2095 20.8353 5.49318V6.56276C20.8353 6.66854 20.8667 6.77194 20.9255 6.85989C20.9842 6.94783 21.0678 7.01638 21.1655 7.05686C21.2632 7.09734 21.3707 7.10793 21.4745 7.08729C21.5782 7.06666 21.6735 7.01572 21.7483 6.94093L22.5505 6.13874C22.6062 6.08305 22.6723 6.03888 22.745 6.00875C22.8178 5.97861 22.8958 5.9631 22.9745 5.9631C23.0533 5.9631 23.1312 5.97861 23.204 6.00875C23.2767 6.03888 23.3429 6.08305 23.3985 6.13874C23.4542 6.19442 23.4984 6.26053 23.5285 6.33328C23.5587 6.40603 23.5742 6.48401 23.5742 6.56276C23.5742 6.64151 23.5587 6.71949 23.5285 6.79224C23.4984 6.86499 23.4542 6.9311 23.3985 6.98678L22.5963 7.78897C22.5215 7.86376 22.4706 7.95906 22.45 8.0628C22.4293 8.16654 22.4399 8.27407 22.4804 8.3718C22.5209 8.46952 22.5894 8.55304 22.6774 8.61181C22.7653 8.67057 22.8687 8.70193 22.9745 8.70193H24.3115C24.5242 8.70193 24.7283 8.78644 24.8787 8.93688C25.0292 9.08732 25.1137 9.29136 25.1137 9.50412C25.1137 9.71687 25.0292 9.92091 24.8787 10.0713C24.7283 10.2218 24.5242 10.3063 24.3115 10.3063H22.9745C22.8327 10.3063 22.6966 10.3626 22.5964 10.4629C22.4961 10.5632 22.4397 10.6993 22.4397 10.8411V11.1259C21.8157 10.5655 20.9967 10.2723 20.1588 10.3095C19.3208 10.3466 18.531 10.711 17.959 11.3245C17.7298 10.7119 17.3192 10.1839 16.782 9.81084C16.2448 9.43779 15.6066 9.23751 14.9526 9.23672H14.4646C14.52 9.08052 14.6223 8.94527 14.7575 8.84952C14.8928 8.75377 15.0543 8.70222 15.22 8.70193V8.70193ZM22.372 12.9803H18.2291C18.3475 12.5209 18.6153 12.1139 18.9903 11.8233C19.3652 11.5328 19.8262 11.3751 20.3006 11.3751C20.7749 11.3751 21.2359 11.5328 21.6108 11.8233C21.9858 12.1139 22.2536 12.5209 22.372 12.9803ZM9.06992 5.49318C9.06992 4.92583 9.29529 4.38173 9.69647 3.98056C10.0976 3.57938 10.6417 3.35401 11.2091 3.35401C11.7764 3.35401 12.3205 3.57938 12.7217 3.98056C13.1229 4.38173 13.3483 4.92583 13.3483 5.49318V9.3287C13.0357 9.43961 12.7651 9.64451 12.5736 9.91528C12.3821 10.1861 12.2791 10.5094 12.2787 10.8411C12.2781 11.6309 12.5701 12.393 13.0983 12.9803H9.06992V5.49318ZM10.1395 14.0498H11.2091V18.3282H10.1395V14.0498ZM8.84845 15.1194C8.56074 15.1196 8.27474 15.1636 8.00033 15.2501V14.0498H9.06992V15.1398C8.99682 15.1267 8.92272 15.1199 8.84845 15.1194V15.1194ZM9.06992 18.0149V18.3282H8.7566L9.06992 18.0149ZM10.1395 25.552L11.2091 25.4183V29.3372L10.1395 28.2676V25.552ZM8.06665 25.8111L9.06992 25.6857V28.2677L8.00033 29.3373V25.8153C8.0225 25.8153 8.04465 25.8139 8.06665 25.8111V25.8111ZM8.7566 30.0936L9.60471 29.2455L10.4528 30.0936H8.7566ZM12.2787 25.188C12.4415 25.09 12.5763 24.9516 12.67 24.7863C12.7637 24.621 12.8131 24.4342 12.8135 24.2442C12.8135 24.233 12.8135 24.2219 12.8129 24.2108H13.6157C13.8157 24.2107 14.0131 24.1657 14.1935 24.0792C14.3738 23.9927 14.5325 23.8668 14.6578 23.7109C14.7831 23.555 14.8718 23.3729 14.9174 23.1781C14.963 22.9834 14.9643 22.7809 14.9213 22.5855C15.2502 22.5266 15.545 22.3466 15.7478 22.0811C15.9506 21.8156 16.0467 21.4838 16.0171 21.151C15.9875 20.8182 15.8343 20.5086 15.5878 20.2831C15.3413 20.0576 15.0193 19.9325 14.6852 19.9326H14.3911C14.4306 19.7383 14.4264 19.5377 14.3789 19.3453C14.3313 19.1528 14.2416 18.9734 14.1162 18.8198C13.9909 18.6663 13.8329 18.5425 13.6539 18.4575C13.4748 18.3725 13.2791 18.3283 13.0809 18.3282H12.2787V14.0498H23.5093V25.2822C23.0784 25.2994 22.6708 25.4826 22.3718 25.7934C22.0728 26.1042 21.9055 26.5185 21.9049 26.9498V27.0415C21.9057 27.4026 22.0229 27.7539 22.2392 28.0431L23.4636 29.6749C23.4933 29.7146 23.5094 29.7628 23.5095 29.8124V29.8249C23.5096 29.896 23.4815 29.9643 23.4313 30.0146C23.3811 30.065 23.313 30.0934 23.2419 30.0936H12.2787V25.188Z" fill="black" stroke="black" stroke-width="2" mask="url(#path-6-inside-1)"/>
<path d="M45.2378 14.2844V3.62033H48.248C49.1758 3.62033 49.9961 3.82541 50.709 4.23557C51.4219 4.64572 51.9712 5.22922 52.3569 5.98605C52.7476 6.74289 52.9453 7.61203 52.9502 8.59348V9.27463C52.9502 10.2805 52.7549 11.1618 52.3643 11.9187C51.9785 12.6755 51.4243 13.2566 50.7017 13.6618C49.9839 14.0671 49.1465 14.2746 48.1895 14.2844H45.2378ZM46.644 4.77756V13.1345H48.1235C49.2075 13.1345 50.0498 12.7976 50.6504 12.1237C51.2559 11.4499 51.5586 10.4904 51.5586 9.24533V8.62277C51.5586 7.41183 51.2729 6.47189 50.7017 5.80295C50.1353 5.12912 49.3296 4.78732 48.2847 4.77756H46.644ZM58.1577 14.4309C57.0835 14.4309 56.2095 14.0793 55.5356 13.3762C54.8618 12.6682 54.5249 11.7234 54.5249 10.5417V10.2927C54.5249 9.50656 54.6738 8.80588 54.9717 8.19064C55.2744 7.57053 55.6943 7.08713 56.2314 6.74045C56.7734 6.38889 57.3594 6.2131 57.9893 6.2131C59.0195 6.2131 59.8203 6.55246 60.3916 7.23117C60.9629 7.90988 61.2485 8.88156 61.2485 10.1462V10.7102H55.8799C55.8994 11.4914 56.1265 12.1237 56.561 12.6071C57.0005 13.0857 57.5571 13.3249 58.231 13.3249C58.7095 13.3249 59.1147 13.2273 59.4468 13.032C59.7788 12.8366 60.0693 12.5779 60.3184 12.2556L61.146 12.9001C60.4819 13.9206 59.4858 14.4309 58.1577 14.4309ZM57.9893 7.32639C57.4424 7.32639 56.9834 7.52658 56.6123 7.92697C56.2412 8.32248 56.0117 8.87912 55.9238 9.59689H59.8936V9.49435C59.8545 8.80588 59.6689 8.27365 59.3369 7.89767C59.0049 7.51682 58.5557 7.32639 57.9893 7.32639ZM64.2954 14.2844H62.9404V3.03439H64.2954V14.2844ZM67.9429 14.2844H66.5879V6.35959H67.9429V14.2844ZM66.478 4.25754C66.478 4.03781 66.5439 3.85226 66.6758 3.7009C66.8125 3.54953 67.0127 3.47385 67.2764 3.47385C67.54 3.47385 67.7402 3.54953 67.877 3.7009C68.0137 3.85226 68.082 4.03781 68.082 4.25754C68.082 4.47726 68.0137 4.66037 67.877 4.80685C67.7402 4.95334 67.54 5.02658 67.2764 5.02658C67.0127 5.02658 66.8125 4.95334 66.6758 4.80685C66.5439 4.66037 66.478 4.47726 66.478 4.25754ZM72.7329 12.446L74.6958 6.35959H76.0801L73.2383 14.2844H72.2056L69.3345 6.35959H70.7188L72.7329 12.446ZM80.5698 14.4309C79.4956 14.4309 78.6216 14.0793 77.9478 13.3762C77.2739 12.6682 76.937 11.7234 76.937 10.5417V10.2927C76.937 9.50656 77.0859 8.80588 77.3838 8.19064C77.6865 7.57053 78.1064 7.08713 78.6436 6.74045C79.1855 6.38889 79.7715 6.2131 80.4014 6.2131C81.4316 6.2131 82.2324 6.55246 82.8037 7.23117C83.375 7.90988 83.6606 8.88156 83.6606 10.1462V10.7102H78.292C78.3115 11.4914 78.5386 12.1237 78.9731 12.6071C79.4126 13.0857 79.9692 13.3249 80.6431 13.3249C81.1216 13.3249 81.5269 13.2273 81.8589 13.032C82.1909 12.8366 82.4814 12.5779 82.7305 12.2556L83.5581 12.9001C82.894 13.9206 81.8979 14.4309 80.5698 14.4309ZM80.4014 7.32639C79.8545 7.32639 79.3955 7.52658 79.0244 7.92697C78.6533 8.32248 78.4238 8.87912 78.3359 9.59689H82.3057V9.49435C82.2666 8.80588 82.0811 8.27365 81.749 7.89767C81.417 7.51682 80.9678 7.32639 80.4014 7.32639ZM89.0659 7.57541C88.8608 7.54123 88.6387 7.52414 88.3994 7.52414C87.5107 7.52414 86.9077 7.90256 86.5903 8.65939V14.2844H85.2354V6.35959H86.5537L86.5757 7.27512C87.02 6.56711 87.6499 6.2131 88.4653 6.2131C88.729 6.2131 88.9292 6.24728 89.0659 6.31564V7.57541ZM93.043 12.2995L94.8887 6.35959H96.3389L93.1528 15.5075C92.6597 16.8259 91.876 17.4851 90.8018 17.4851L90.5454 17.4631L90.04 17.3679V16.2693L90.4062 16.2986C90.8652 16.2986 91.2217 16.2058 91.4756 16.0202C91.7344 15.8347 91.9468 15.4953 92.1128 15.0022L92.4131 14.1965L89.5859 6.35959H91.0654L93.043 12.2995ZM51.1191 27.5749H46.644V32.2844H45.2378V21.6203H51.8442V22.7776H46.644V26.425H51.1191V27.5749ZM52.7964 28.2487C52.7964 27.4724 52.9478 26.7741 53.2505 26.154C53.5581 25.5339 53.9829 25.0554 54.5249 24.7185C55.0718 24.3816 55.6943 24.2131 56.3926 24.2131C57.4717 24.2131 58.3433 24.5866 59.0073 25.3337C59.6763 26.0808 60.0107 27.0744 60.0107 28.3147V28.4099C60.0107 29.1814 59.8618 29.8747 59.564 30.49C59.271 31.1003 58.8486 31.5764 58.2969 31.9182C57.75 32.26 57.1201 32.4309 56.4072 32.4309C55.333 32.4309 54.4614 32.0573 53.7925 31.3103C53.1284 30.5632 52.7964 29.5744 52.7964 28.344V28.2487ZM54.1587 28.4099C54.1587 29.2888 54.3613 29.9944 54.7666 30.5266C55.1768 31.0588 55.7236 31.3249 56.4072 31.3249C57.0957 31.3249 57.6426 31.0564 58.0479 30.5193C58.4531 29.9773 58.6558 29.2204 58.6558 28.2487C58.6558 27.3796 58.4482 26.6765 58.0332 26.1394C57.623 25.5974 57.0762 25.3264 56.3926 25.3264C55.7236 25.3264 55.1841 25.5925 54.7739 26.1247C54.3638 26.657 54.1587 27.4187 54.1587 28.4099ZM61.3511 28.2487C61.3511 27.4724 61.5024 26.7741 61.8052 26.154C62.1128 25.5339 62.5376 25.0554 63.0796 24.7185C63.6265 24.3816 64.249 24.2131 64.9473 24.2131C66.0264 24.2131 66.8979 24.5866 67.562 25.3337C68.231 26.0808 68.5654 27.0744 68.5654 28.3147V28.4099C68.5654 29.1814 68.4165 29.8747 68.1187 30.49C67.8257 31.1003 67.4033 31.5764 66.8516 31.9182C66.3047 32.26 65.6748 32.4309 64.9619 32.4309C63.8877 32.4309 63.0161 32.0573 62.3472 31.3103C61.6831 30.5632 61.3511 29.5744 61.3511 28.344V28.2487ZM62.7134 28.4099C62.7134 29.2888 62.916 29.9944 63.3213 30.5266C63.7314 31.0588 64.2783 31.3249 64.9619 31.3249C65.6504 31.3249 66.1973 31.0564 66.6025 30.5193C67.0078 29.9773 67.2104 29.2204 67.2104 28.2487C67.2104 27.3796 67.0029 26.6765 66.5879 26.1394C66.1777 25.5974 65.6309 25.3264 64.9473 25.3264C64.2783 25.3264 63.7388 25.5925 63.3286 26.1247C62.9185 26.657 62.7134 27.4187 62.7134 28.4099ZM69.9351 28.2561C69.9351 27.0403 70.2231 26.0637 70.7993 25.3264C71.3755 24.5842 72.1299 24.2131 73.0625 24.2131C73.9902 24.2131 74.7251 24.5305 75.2671 25.1653V21.0344H76.6221V32.2844H75.377L75.311 31.4348C74.769 32.0988 74.0146 32.4309 73.0479 32.4309C72.1299 32.4309 71.3804 32.0549 70.7993 31.3029C70.2231 30.551 69.9351 29.5695 69.9351 28.3586V28.2561ZM71.29 28.4099C71.29 29.3083 71.4756 30.0114 71.8467 30.5193C72.2178 31.0271 72.7305 31.281 73.3848 31.281C74.2441 31.281 74.8716 30.8952 75.2671 30.1237V26.4836C74.8618 25.7365 74.2393 25.363 73.3994 25.363C72.7354 25.363 72.2178 25.6194 71.8467 26.132C71.4756 26.6447 71.29 27.404 71.29 28.4099Z" fill="black"/>
<path d="M45.2378 14.2844H44.2378V15.2844H45.2378V14.2844ZM45.2378 3.62033V2.62033H44.2378V3.62033H45.2378ZM52.3569 5.98605L51.466 6.44016L51.4683 6.4447L52.3569 5.98605ZM52.9502 8.59348L53.9502 8.59348L53.9502 8.5885L52.9502 8.59348ZM52.3643 11.9187L51.4756 11.46L51.4733 11.4646L52.3643 11.9187ZM50.7017 13.6618L50.2125 12.7896L50.21 12.7911L50.7017 13.6618ZM48.1895 14.2844L48.1895 15.2844L48.1997 15.2843L48.1895 14.2844ZM46.644 4.77756V3.77756H45.644V4.77756H46.644ZM46.644 13.1345H45.644V14.1345H46.644V13.1345ZM50.6504 12.1237L49.9066 11.4554L49.9039 11.4584L50.6504 12.1237ZM50.7017 5.80295L49.9362 6.44642L49.9412 6.45237L50.7017 5.80295ZM48.2847 4.77756L48.294 3.77756H48.2847V4.77756ZM46.2378 14.2844V3.62033H44.2378V14.2844H46.2378ZM45.2378 4.62033H48.248V2.62033H45.2378V4.62033ZM48.248 4.62033C49.0236 4.62033 49.6677 4.7902 50.2103 5.10234L51.2077 3.36879C50.3244 2.86062 49.328 2.62033 48.248 2.62033V4.62033ZM50.2103 5.10234C50.7495 5.41255 51.1652 5.84999 51.466 6.44015L53.2479 5.53196C52.7772 4.60845 52.0943 3.87889 51.2077 3.36879L50.2103 5.10234ZM51.4683 6.4447C51.7762 7.04124 51.946 7.75076 51.9502 8.59845L53.9502 8.5885C53.9446 7.4733 53.7189 6.44454 53.2456 5.52741L51.4683 6.4447ZM51.9502 8.59348V9.27463H53.9502V8.59348H51.9502ZM51.9502 9.27463C51.9502 10.1497 51.7809 10.8685 51.4756 11.46L53.2529 12.3773C53.7288 11.4551 53.9502 10.4113 53.9502 9.27463H51.9502ZM51.4733 11.4646C51.1749 12.0501 50.7583 12.4835 50.2125 12.7896L51.1908 14.534C52.0903 14.0296 52.7822 13.3009 53.2552 12.3728L51.4733 11.4646ZM50.21 12.7911C49.6614 13.1008 48.9949 13.2761 48.1792 13.2844L48.1997 15.2843C49.2981 15.2731 50.3064 15.0334 51.1933 14.5326L50.21 12.7911ZM48.1895 13.2844H45.2378V15.2844H48.1895V13.2844ZM45.644 4.77756V13.1345H47.644V4.77756H45.644ZM46.644 14.1345H48.1235V12.1345H46.644V14.1345ZM48.1235 14.1345C49.4302 14.1345 50.5686 13.7184 51.3969 12.7891L49.9039 11.4584C49.531 11.8768 48.9848 12.1345 48.1235 12.1345V14.1345ZM51.3942 12.7921C52.2177 11.8757 52.5586 10.6443 52.5586 9.24533H50.5586C50.5586 10.3366 50.2941 11.0241 49.9066 11.4554L51.3942 12.7921ZM52.5586 9.24533V8.62277H50.5586V9.24533H52.5586ZM52.5586 8.62277C52.5586 7.26323 52.2376 6.06159 51.4621 5.15353L49.9412 6.45237C50.3083 6.88219 50.5586 7.56044 50.5586 8.62277H52.5586ZM51.4671 5.1595C50.6773 4.21983 49.5708 3.78953 48.294 3.7776L48.2753 5.77751C49.0884 5.78511 49.5932 6.03841 49.9362 6.4464L51.4671 5.1595ZM48.2847 3.77756H46.644V5.77756H48.2847V3.77756ZM55.5356 13.3762L54.8113 14.0656L54.8137 14.0681L55.5356 13.3762ZM54.9717 8.19064L54.073 7.75194L54.0716 7.7549L54.9717 8.19064ZM56.2314 6.74045L56.7737 7.58063L56.7756 7.57941L56.2314 6.74045ZM60.3916 7.23117L59.6265 7.87514L60.3916 7.23117ZM61.2485 10.7102V11.7102H62.2485V10.7102H61.2485ZM55.8799 10.7102V9.71017H54.8546L54.8802 10.7352L55.8799 10.7102ZM56.561 12.6071L55.8173 13.2757L55.8245 13.2836L56.561 12.6071ZM60.3184 12.2556L60.9328 11.4666L60.1408 10.8499L59.5271 11.6441L60.3184 12.2556ZM61.146 12.9001L61.9842 13.4455L62.4852 12.6756L61.7604 12.1111L61.146 12.9001ZM56.6123 7.92697L57.3416 8.61122L57.3457 8.60674L56.6123 7.92697ZM55.9238 9.59689L54.9312 9.47535L54.7939 10.5969H55.9238V9.59689ZM59.8936 9.59689V10.5969H60.8936V9.59689H59.8936ZM59.8936 9.49435H60.8936V9.46601L60.8919 9.43771L59.8936 9.49435ZM59.3369 7.89767L58.5831 8.55482L58.5874 8.55962L59.3369 7.89767ZM58.1577 13.4309C57.325 13.4309 56.7224 13.1693 56.2576 12.6843L54.8137 14.0681C55.6965 14.9894 56.8419 15.4309 58.1577 15.4309V13.4309ZM56.26 12.6868C55.7988 12.2021 55.5249 11.5235 55.5249 10.5417H53.5249C53.5249 11.9232 53.9249 13.1342 54.8113 14.0656L56.26 12.6868ZM55.5249 10.5417V10.2927H53.5249V10.5417H55.5249ZM55.5249 10.2927C55.5249 9.63483 55.6489 9.08676 55.8717 8.62639L54.0716 7.7549C53.6988 8.525 53.5249 9.37829 53.5249 10.2927H55.5249ZM55.8703 8.62935C56.0997 8.15954 56.4019 7.82062 56.7737 7.58063L55.6891 5.90026C54.9867 6.35363 54.4492 6.98152 54.073 7.75194L55.8703 8.62935ZM56.7756 7.57941C57.16 7.3301 57.5577 7.2131 57.9893 7.2131V5.2131C57.1611 5.2131 56.3869 5.44767 55.6873 5.90149L56.7756 7.57941ZM57.9893 7.2131C58.7774 7.2131 59.2769 7.45976 59.6265 7.87514L61.1567 6.5872C60.3637 5.64516 59.2616 5.2131 57.9893 5.2131V7.2131ZM59.6265 7.87514C59.9928 8.31029 60.2485 9.01859 60.2485 10.1462H62.2485C62.2485 8.74453 61.9329 7.50947 61.1567 6.5872L59.6265 7.87514ZM60.2485 10.1462V10.7102H62.2485V10.1462H60.2485ZM61.2485 9.71017H55.8799V11.7102H61.2485V9.71017ZM54.8802 10.7352C54.9044 11.7042 55.1928 12.581 55.8174 13.2757L57.3047 11.9386C57.0601 11.6665 56.8944 11.2786 56.8796 10.6852L54.8802 10.7352ZM55.8245 13.2836C56.4612 13.9768 57.2889 14.3249 58.231 14.3249V12.3249C57.8253 12.3249 57.5398 12.1945 57.2976 11.9307L55.8245 13.2836ZM58.231 14.3249C58.8449 14.3249 59.435 14.1991 59.9538 13.8939L58.9398 12.17C58.7945 12.2554 58.574 12.3249 58.231 12.3249V14.3249ZM59.9538 13.8939C60.4019 13.6303 60.7872 13.2843 61.1096 12.867L59.5271 11.6441C59.3515 11.8714 59.1557 12.043 58.9398 12.17L59.9538 13.8939ZM59.7039 13.0446L60.5316 13.6891L61.7604 12.1111L60.9328 11.4666L59.7039 13.0446ZM60.3078 12.3547C59.8473 13.0624 59.184 13.4309 58.1577 13.4309V15.4309C59.7876 15.4309 61.1165 14.7789 61.9842 13.4455L60.3078 12.3547ZM57.9893 6.32639C57.1645 6.32639 56.4396 6.64222 55.8789 7.24721L57.3457 8.60674C57.5272 8.41094 57.7202 8.32639 57.9893 8.32639V6.32639ZM55.883 7.24273C55.3251 7.83739 55.0364 8.61638 54.9312 9.47535L56.9164 9.71843C56.987 9.14186 57.1573 8.80757 57.3416 8.61121L55.883 7.24273ZM55.9238 10.5969H59.8936V8.59689H55.9238V10.5969ZM60.8936 9.59689V9.49435H58.8936V9.59689H60.8936ZM60.8919 9.43771C60.8449 8.6082 60.6139 7.83301 60.0865 7.23573L58.5874 8.55962C58.724 8.71429 58.8641 9.00356 58.8952 9.551L60.8919 9.43771ZM60.0907 7.24054C59.5445 6.61402 58.8056 6.32639 57.9893 6.32639V8.32639C58.3057 8.32639 58.4653 8.41961 58.5831 8.55481L60.0907 7.24054ZM64.2954 14.2844V15.2844H65.2954V14.2844H64.2954ZM62.9404 14.2844H61.9404V15.2844H62.9404V14.2844ZM62.9404 3.03439V2.03439H61.9404V3.03439H62.9404ZM64.2954 3.03439H65.2954V2.03439H64.2954V3.03439ZM64.2954 13.2844H62.9404V15.2844H64.2954V13.2844ZM63.9404 14.2844V3.03439H61.9404V14.2844H63.9404ZM62.9404 4.03439H64.2954V2.03439H62.9404V4.03439ZM63.2954 3.03439V14.2844H65.2954V3.03439H63.2954ZM67.9429 14.2844V15.2844H68.9429V14.2844H67.9429ZM66.5879 14.2844H65.5879V15.2844H66.5879V14.2844ZM66.5879 6.35959V5.35959H65.5879V6.35959H66.5879ZM67.9429 6.35959H68.9429V5.35959H67.9429V6.35959ZM66.6758 3.7009L65.9337 3.03061L65.9276 3.03731L65.9217 3.04412L66.6758 3.7009ZM66.6758 4.80685L65.9325 5.47582L65.9385 5.48255L65.9447 5.48917L66.6758 4.80685ZM67.9429 13.2844H66.5879V15.2844H67.9429V13.2844ZM67.5879 14.2844V6.35959H65.5879V14.2844H67.5879ZM66.5879 7.35959H67.9429V5.35959H66.5879V7.35959ZM66.9429 6.35959V14.2844H68.9429V6.35959H66.9429ZM67.478 4.25754C67.478 4.24862 67.4792 4.26194 67.4698 4.28835C67.4599 4.31609 67.4447 4.34065 67.4299 4.35768L65.9217 3.04412C65.6158 3.39529 65.478 3.821 65.478 4.25754H67.478ZM67.4179 4.37118C67.3744 4.41935 67.3232 4.45047 67.2821 4.466C67.2464 4.4795 67.2383 4.47385 67.2764 4.47385V2.47385C66.8177 2.47385 66.3118 2.61192 65.9337 3.03061L67.4179 4.37118ZM67.2764 4.47385C67.3145 4.47385 67.3064 4.4795 67.2706 4.466C67.2296 4.45047 67.1784 4.41935 67.1349 4.37118L68.6191 3.03061C68.2409 2.61192 67.735 2.47385 67.2764 2.47385V4.47385ZM67.1349 4.37118C67.1204 4.35523 67.1037 4.33003 67.0924 4.29929C67.0815 4.26974 67.082 4.25259 67.082 4.25754H69.082C69.082 3.81097 68.9352 3.38065 68.6191 3.03061L67.1349 4.37118ZM67.082 4.25754C67.082 4.2627 67.0815 4.24324 67.0939 4.20991C67.107 4.175 67.1268 4.14504 67.1459 4.12454L68.608 5.48917C68.9349 5.13893 69.082 4.70394 69.082 4.25754H67.082ZM67.1459 4.12454C67.1915 4.07563 67.2429 4.04634 67.2807 4.03253C67.3133 4.02061 67.3177 4.02658 67.2764 4.02658V6.02658C67.7253 6.02658 68.2275 5.89689 68.608 5.48917L67.1459 4.12454ZM67.2764 4.02658C67.235 4.02658 67.2395 4.02061 67.272 4.03253C67.3098 4.04634 67.3612 4.07563 67.4068 4.12454L65.9447 5.48917C66.3253 5.89689 66.8274 6.02658 67.2764 6.02658V4.02658ZM67.4191 4.13789C67.4387 4.15965 67.4569 4.18909 67.4684 4.22094C67.4792 4.2511 67.478 4.26668 67.478 4.25754H65.478C65.478 4.69372 65.616 5.12418 65.9325 5.47582L67.4191 4.13789ZM72.7329 12.446L71.7835 12.7602L72.7452 15.666L73.6846 12.753L72.7329 12.446ZM74.6958 6.35959V5.35959H73.9676L73.7441 6.05265L74.6958 6.35959ZM76.0801 6.35959L77.0214 6.69714L77.501 5.35959H76.0801V6.35959ZM73.2383 14.2844V15.2844H73.942L74.1796 14.6219L73.2383 14.2844ZM72.2056 14.2844L71.2654 14.625L71.5043 15.2844H72.2056V14.2844ZM69.3345 6.35959V5.35959H67.9086L68.3943 6.70022L69.3345 6.35959ZM70.7188 6.35959L71.6681 6.04542L71.4412 5.35959H70.7188V6.35959ZM73.6846 12.753L75.6475 6.66652L73.7441 6.05265L71.7812 12.1391L73.6846 12.753ZM74.6958 7.35959H76.0801V5.35959H74.6958V7.35959ZM75.1388 6.02204L72.297 13.9468L74.1796 14.6219L77.0214 6.69714L75.1388 6.02204ZM73.2383 13.2844H72.2056V15.2844H73.2383V13.2844ZM73.1458 13.9438L70.2747 6.01896L68.3943 6.70022L71.2654 14.625L73.1458 13.9438ZM69.3345 7.35959H70.7188V5.35959H69.3345V7.35959ZM69.7694 6.67376L71.7835 12.7602L73.6823 12.1318L71.6681 6.04542L69.7694 6.67376ZM77.9478 13.3762L77.2234 14.0656L77.2258 14.0681L77.9478 13.3762ZM77.3838 8.19064L76.4852 7.75194L76.4837 7.7549L77.3838 8.19064ZM78.6436 6.74045L79.1859 7.58063L79.1877 7.57941L78.6436 6.74045ZM82.8037 7.23117L82.0387 7.87514L82.8037 7.23117ZM83.6606 10.7102V11.7102H84.6606V10.7102H83.6606ZM78.292 10.7102V9.71017H77.2667L77.2923 10.7352L78.292 10.7102ZM78.9731 12.6071L78.2294 13.2757L78.2366 13.2836L78.9731 12.6071ZM82.7305 12.2556L83.3449 11.4666L82.5529 10.8499L81.9392 11.6441L82.7305 12.2556ZM83.5581 12.9001L84.3963 13.4455L84.8973 12.6756L84.1725 12.1111L83.5581 12.9001ZM79.0244 7.92697L79.7537 8.61122L79.7578 8.60674L79.0244 7.92697ZM78.3359 9.59689L77.3434 9.47535L77.206 10.5969H78.3359V9.59689ZM82.3057 9.59689V10.5969H83.3057V9.59689H82.3057ZM82.3057 9.49435H83.3057V9.46601L83.3041 9.43771L82.3057 9.49435ZM81.749 7.89767L80.9952 8.55482L80.9995 8.55962L81.749 7.89767ZM80.5698 13.4309C79.7372 13.4309 79.1345 13.1693 78.6697 12.6843L77.2258 14.0681C78.1087 14.9894 79.2541 15.4309 80.5698 15.4309V13.4309ZM78.6721 12.6868C78.2109 12.2021 77.937 11.5235 77.937 10.5417H75.937C75.937 11.9232 76.337 13.1342 77.2234 14.0656L78.6721 12.6868ZM77.937 10.5417V10.2927H75.937V10.5417H77.937ZM77.937 10.2927C77.937 9.63483 78.061 9.08676 78.2839 8.62639L76.4837 7.7549C76.1109 8.525 75.937 9.37829 75.937 10.2927H77.937ZM78.2824 8.62935C78.5118 8.15954 78.814 7.82062 79.1859 7.58063L78.1013 5.90026C77.3989 6.35363 76.8613 6.98152 76.4852 7.75194L78.2824 8.62935ZM79.1877 7.57941C79.5721 7.3301 79.9698 7.2131 80.4014 7.2131V5.2131C79.5732 5.2131 78.799 5.44767 78.0994 5.90149L79.1877 7.57941ZM80.4014 7.2131C81.1895 7.2131 81.689 7.45976 82.0387 7.87514L83.5688 6.5872C82.7758 5.64516 81.6737 5.2131 80.4014 5.2131V7.2131ZM82.0387 7.87514C82.4049 8.31029 82.6606 9.01859 82.6606 10.1462H84.6606C84.6606 8.74453 84.3451 7.50947 83.5688 6.5872L82.0387 7.87514ZM82.6606 10.1462V10.7102H84.6606V10.1462H82.6606ZM83.6606 9.71017H78.292V11.7102H83.6606V9.71017ZM77.2923 10.7352C77.3165 11.7042 77.6049 12.581 78.2295 13.2757L79.7168 11.9386C79.4722 11.6665 79.3065 11.2786 79.2917 10.6852L77.2923 10.7352ZM78.2366 13.2836C78.8733 13.9768 79.701 14.3249 80.6431 14.3249V12.3249C80.2374 12.3249 79.9519 12.1945 79.7097 11.9307L78.2366 13.2836ZM80.6431 14.3249C81.2571 14.3249 81.8471 14.1991 82.3659 13.8939L81.3519 12.17C81.2066 12.2554 80.9861 12.3249 80.6431 12.3249V14.3249ZM82.3659 13.8939C82.814 13.6303 83.1993 13.2843 83.5218 12.867L81.9392 11.6441C81.7636 11.8714 81.5679 12.043 81.3519 12.17L82.3659 13.8939ZM82.116 13.0446L82.9437 13.6891L84.1725 12.1111L83.3449 11.4666L82.116 13.0446ZM82.7199 12.3547C82.2594 13.0624 81.5962 13.4309 80.5698 13.4309V15.4309C82.1997 15.4309 83.5286 14.7789 84.3963 13.4455L82.7199 12.3547ZM80.4014 6.32639C79.5767 6.32639 78.8517 6.64222 78.291 7.24721L79.7578 8.60674C79.9393 8.41094 80.1323 8.32639 80.4014 8.32639V6.32639ZM78.2952 7.24273C77.7372 7.83739 77.4485 8.61638 77.3434 9.47535L79.3285 9.71843C79.3991 9.14186 79.5694 8.80757 79.7537 8.61121L78.2952 7.24273ZM78.3359 10.5969H82.3057V8.59689H78.3359V10.5969ZM83.3057 9.59689V9.49435H81.3057V9.59689H83.3057ZM83.3041 9.43771C83.257 8.6082 83.026 7.83301 82.4986 7.23573L80.9995 8.55962C81.1361 8.71429 81.2762 9.00356 81.3073 9.551L83.3041 9.43771ZM82.5028 7.24054C81.9566 6.61402 81.2177 6.32639 80.4014 6.32639V8.32639C80.7179 8.32639 80.8774 8.41961 80.9953 8.55481L82.5028 7.24054ZM89.0659 7.57541L88.9015 8.5618L90.0659 8.75587V7.57541H89.0659ZM86.5903 8.65939L85.6681 8.27267L85.5903 8.4582V8.65939H86.5903ZM86.5903 14.2844V15.2844H87.5903V14.2844H86.5903ZM85.2354 14.2844H84.2354V15.2844H85.2354V14.2844ZM85.2354 6.35959V5.35959H84.2354V6.35959H85.2354ZM86.5537 6.35959L87.5534 6.3356L87.53 5.35959H86.5537V6.35959ZM86.5757 7.27512L85.576 7.29911L85.6557 10.6222L87.4227 7.80669L86.5757 7.27512ZM89.0659 6.31564H90.0659V5.69761L89.5131 5.42122L89.0659 6.31564ZM89.2303 6.58902C88.9635 6.54455 88.6857 6.52414 88.3994 6.52414V8.52414C88.5916 8.52414 88.7582 8.53791 88.9015 8.5618L89.2303 6.58902ZM88.3994 6.52414C87.8135 6.52414 87.2452 6.64963 86.7491 6.96092C86.2474 7.27576 85.8939 7.73423 85.6681 8.27267L87.5125 9.04612C87.6041 8.82772 87.7109 8.71856 87.8122 8.65499C87.9192 8.58786 88.0966 8.52414 88.3994 8.52414V6.52414ZM85.5903 8.65939V14.2844H87.5903V8.65939H85.5903ZM86.5903 13.2844H85.2354V15.2844H86.5903V13.2844ZM86.2354 14.2844V6.35959H84.2354V14.2844H86.2354ZM85.2354 7.35959H86.5537V5.35959H85.2354V7.35959ZM85.554 6.38358L85.576 7.29911L87.5754 7.25112L87.5534 6.3356L85.554 6.38358ZM87.4227 7.80669C87.6897 7.38127 88.0044 7.2131 88.4653 7.2131V5.2131C87.2954 5.2131 86.3504 5.75295 85.7287 6.74354L87.4227 7.80669ZM88.4653 7.2131C88.5564 7.2131 88.614 7.21919 88.6449 7.22448C88.6779 7.2301 88.6618 7.23161 88.6187 7.21007L89.5131 5.42122C89.171 5.25013 88.787 5.2131 88.4653 5.2131V7.2131ZM88.0659 6.31564V7.57541H90.0659V6.31564H88.0659ZM93.043 12.2995L92.0942 12.6154L93.0758 15.5639L93.9979 12.5963L93.043 12.2995ZM94.8887 6.35959V5.35959H94.1522L93.9337 6.06286L94.8887 6.35959ZM96.3389 6.35959L97.2832 6.68849L97.7461 5.35959H96.3389V6.35959ZM93.1528 15.5075L94.0894 15.8579L94.0934 15.8472L94.0972 15.8364L93.1528 15.5075ZM90.8018 17.4851L90.7164 18.4814L90.759 18.4851H90.8018V17.4851ZM90.5454 17.4631L90.3603 18.4458L90.4098 18.4551L90.46 18.4595L90.5454 17.4631ZM90.04 17.3679H89.04V18.1971L89.8549 18.3506L90.04 17.3679ZM90.04 16.2693L90.1198 15.2724L89.04 15.1861V16.2693H90.04ZM90.4062 16.2986L90.3265 17.2954L90.3663 17.2986H90.4062V16.2986ZM91.4756 16.0202L90.8929 15.2075L90.8856 15.2128L91.4756 16.0202ZM92.1128 15.0022L91.1758 14.6529L91.1702 14.6679L91.1651 14.6831L92.1128 15.0022ZM92.4131 14.1965L93.3501 14.5458L93.4782 14.2021L93.3537 13.8572L92.4131 14.1965ZM89.5859 6.35959V5.35959H88.1621L88.6453 6.69893L89.5859 6.35959ZM91.0654 6.35959L92.0142 6.04371L91.7865 5.35959H91.0654V6.35959ZM93.9979 12.5963L95.8436 6.65632L93.9337 6.06286L92.088 12.0028L93.9979 12.5963ZM94.8887 7.35959H96.3389V5.35959H94.8887V7.35959ZM95.3945 6.03069L92.2085 15.1786L94.0972 15.8364L97.2832 6.68849L95.3945 6.03069ZM92.2162 15.1572C92.0084 15.7128 91.7714 16.0404 91.5515 16.2254C91.3492 16.3955 91.1159 16.4851 90.8018 16.4851V18.4851C91.5619 18.4851 92.2575 18.245 92.8389 17.756C93.4027 17.2818 93.8041 16.6207 94.0894 15.8579L92.2162 15.1572ZM90.8872 16.4887L90.6308 16.4668L90.46 18.4595L90.7164 18.4814L90.8872 16.4887ZM90.7306 16.4804L90.2252 16.3852L89.8549 18.3506L90.3603 18.4458L90.7306 16.4804ZM91.04 17.3679V16.2693H89.04V17.3679H91.04ZM89.9603 17.2661L90.3265 17.2954L90.486 15.3017L90.1198 15.2724L89.9603 17.2661ZM90.4062 17.2986C90.984 17.2986 91.5779 17.184 92.0656 16.8276L90.8856 15.2128C90.8654 15.2276 90.7465 15.2986 90.4062 15.2986V17.2986ZM92.0583 16.8329C92.5651 16.4696 92.8664 15.898 93.0605 15.3212L91.1651 14.6831C91.0272 15.0927 90.9037 15.1998 90.8929 15.2075L92.0583 16.8329ZM93.0498 15.3514L93.3501 14.5458L91.4761 13.8472L91.1758 14.6529L93.0498 15.3514ZM93.3537 13.8572L90.5266 6.02025L88.6453 6.69893L91.4724 14.5358L93.3537 13.8572ZM89.5859 7.35959H91.0654V5.35959H89.5859V7.35959ZM90.1166 6.67547L92.0942 12.6154L93.9918 11.9837L92.0142 6.04371L90.1166 6.67547ZM51.1191 27.5749V28.5749H52.1191V27.5749H51.1191ZM46.644 27.5749V26.5749H45.644V27.5749H46.644ZM46.644 32.2844V33.2844H47.644V32.2844H46.644ZM45.2378 32.2844H44.2378V33.2844H45.2378V32.2844ZM45.2378 21.6203V20.6203H44.2378V21.6203H45.2378ZM51.8442 21.6203H52.8442V20.6203H51.8442V21.6203ZM51.8442 22.7776V23.7776H52.8442V22.7776H51.8442ZM46.644 22.7776V21.7776H45.644V22.7776H46.644ZM46.644 26.425H45.644V27.425H46.644V26.425ZM51.1191 26.425H52.1191V25.425H51.1191V26.425ZM51.1191 26.5749H46.644V28.5749H51.1191V26.5749ZM45.644 27.5749V32.2844H47.644V27.5749H45.644ZM46.644 31.2844H45.2378V33.2844H46.644V31.2844ZM46.2378 32.2844V21.6203H44.2378V32.2844H46.2378ZM45.2378 22.6203H51.8442V20.6203H45.2378V22.6203ZM50.8442 21.6203V22.7776H52.8442V21.6203H50.8442ZM51.8442 21.7776H46.644V23.7776H51.8442V21.7776ZM45.644 22.7776V26.425H47.644V22.7776H45.644ZM46.644 27.425H51.1191V25.425H46.644V27.425ZM50.1191 26.425V27.5749H52.1191V26.425H50.1191ZM53.2505 26.154L52.3546 25.7096L52.3519 25.7153L53.2505 26.154ZM54.5249 24.7185L54.0004 23.8671L53.997 23.8692L54.5249 24.7185ZM59.0073 25.3337L58.2599 25.9981L58.2623 26.0008L59.0073 25.3337ZM59.564 30.49L58.6639 30.0542L58.6624 30.0572L59.564 30.49ZM58.2969 31.9182L57.7703 31.0681L57.7669 31.0702L58.2969 31.9182ZM53.7925 31.3103L53.0451 31.9746L53.0475 31.9774L53.7925 31.3103ZM54.7666 30.5266L53.971 31.1324L53.9745 31.137L54.7666 30.5266ZM58.0479 30.5193L58.8461 31.1216L58.8487 31.1181L58.0479 30.5193ZM58.0332 26.1394L57.2358 26.7428L57.2419 26.7508L58.0332 26.1394ZM53.7964 28.2487C53.7964 27.6053 53.921 27.06 54.1491 26.5927L52.3519 25.7153C51.9745 26.4883 51.7964 27.3395 51.7964 28.2487H53.7964ZM54.1463 26.5984C54.3786 26.1302 54.6821 25.7982 55.0528 25.5678L53.997 23.8692C53.2838 24.3125 52.7376 24.9376 52.3547 25.7096L54.1463 26.5984ZM55.0494 25.5699C55.4249 25.3385 55.8628 25.2131 56.3926 25.2131V23.2131C55.5258 23.2131 54.7186 23.4246 54.0004 23.8671L55.0494 25.5699ZM56.3926 25.2131C57.2116 25.2131 57.802 25.4829 58.2599 25.9981L59.7547 24.6693C58.8845 23.6904 57.7317 23.2131 56.3926 23.2131V25.2131ZM58.2623 26.0008C58.7306 26.5237 59.0107 27.2598 59.0107 28.3147H61.0107C61.0107 26.889 60.6219 25.6378 59.7523 24.6666L58.2623 26.0008ZM59.0107 28.3147V28.4099H61.0107V28.3147H59.0107ZM59.0107 28.4099C59.0107 29.05 58.888 29.5914 58.6639 30.0542L60.464 30.9257C60.8357 30.1581 61.0107 29.3128 61.0107 28.4099H59.0107ZM58.6624 30.0572C58.4483 30.5033 58.1526 30.8312 57.7703 31.0681L58.8235 32.7683C59.5447 32.3215 60.0937 31.6973 60.4655 30.9227L58.6624 30.0572ZM57.7669 31.0702C57.3954 31.3024 56.9531 31.4309 56.4072 31.4309V33.4309C57.2871 33.4309 58.1046 33.2176 58.8269 32.7662L57.7669 31.0702ZM56.4072 31.4309C55.5946 31.4309 55.002 31.162 54.5375 30.6432L53.0475 31.9774C53.9208 32.9527 55.0715 33.4309 56.4072 33.4309V31.4309ZM54.5399 30.6459C54.0739 30.1217 53.7964 29.3885 53.7964 28.344H51.7964C51.7964 29.7603 52.1829 31.0047 53.0451 31.9746L54.5399 30.6459ZM53.7964 28.344V28.2487H51.7964V28.344H53.7964ZM53.1587 28.4099C53.1587 29.439 53.3968 30.3783 53.971 31.1324L55.5622 29.9208C55.3259 29.6104 55.1587 29.1386 55.1587 28.4099H53.1587ZM53.9745 31.137C54.5778 31.9198 55.4198 32.3249 56.4072 32.3249V30.3249C56.0275 30.3249 55.7757 30.1978 55.5587 29.9162L53.9745 31.137ZM56.4072 32.3249C57.4009 32.3249 58.2468 31.9159 58.8461 31.1216L57.2496 29.9169C57.0384 30.1968 56.7905 30.3249 56.4072 30.3249V32.3249ZM58.8487 31.1181C59.4288 30.3424 59.6558 29.3454 59.6558 28.2487H57.6558C57.6558 29.0955 57.4775 29.6122 57.247 29.9204L58.8487 31.1181ZM59.6558 28.2487C59.6558 27.221 59.4087 26.284 58.8245 25.5279L57.2419 26.7508C57.4877 27.0689 57.6558 27.5382 57.6558 28.2487H59.6558ZM58.8306 25.5359C58.2302 24.7425 57.3873 24.3264 56.3926 24.3264V26.3264C56.7651 26.3264 57.0159 26.4523 57.2358 26.7428L58.8306 25.5359ZM56.3926 24.3264C55.4118 24.3264 54.5803 24.7377 53.9818 25.5143L55.566 26.7351C55.7878 26.4473 56.0354 26.3264 56.3926 26.3264V24.3264ZM53.9818 25.5143C53.3862 26.2873 53.1587 27.2985 53.1587 28.4099H55.1587C55.1587 27.5388 55.3414 27.0266 55.566 26.7351L53.9818 25.5143ZM61.8052 26.154L60.9093 25.7096L60.9065 25.7153L61.8052 26.154ZM63.0796 24.7185L62.5551 23.8671L62.5517 23.8692L63.0796 24.7185ZM67.562 25.3337L66.8146 25.9981L66.817 26.0008L67.562 25.3337ZM68.1187 30.49L67.2186 30.0542L67.2171 30.0572L68.1187 30.49ZM66.8516 31.9182L66.3249 31.0681L66.3216 31.0702L66.8516 31.9182ZM62.3472 31.3103L61.5998 31.9746L61.6022 31.9774L62.3472 31.3103ZM63.3213 30.5266L62.5257 31.1324L62.5292 31.137L63.3213 30.5266ZM66.6025 30.5193L67.4008 31.1216L67.4034 31.1181L66.6025 30.5193ZM66.5879 26.1394L65.7904 26.7428L65.7966 26.7508L66.5879 26.1394ZM62.3511 28.2487C62.3511 27.6053 62.4757 27.06 62.7038 26.5927L60.9065 25.7153C60.5292 26.4883 60.3511 27.3395 60.3511 28.2487H62.3511ZM62.701 26.5984C62.9333 26.1302 63.2367 25.7982 63.6075 25.5678L62.5517 23.8692C61.8385 24.3125 61.2923 24.9376 60.9093 25.7096L62.701 26.5984ZM63.6041 25.5699C63.9796 25.3385 64.4175 25.2131 64.9473 25.2131V23.2131C64.0805 23.2131 63.2733 23.4246 62.5551 23.8671L63.6041 25.5699ZM64.9473 25.2131C65.7663 25.2131 66.3567 25.4829 66.8146 25.9981L68.3094 24.6693C67.4392 23.6904 66.2864 23.2131 64.9473 23.2131V25.2131ZM66.817 26.0008C67.2853 26.5237 67.5654 27.2598 67.5654 28.3147H69.5654C69.5654 26.889 69.1766 25.6378 68.307 24.6666L66.817 26.0008ZM67.5654 28.3147V28.4099H69.5654V28.3147H67.5654ZM67.5654 28.4099C67.5654 29.05 67.4427 29.5914 67.2186 30.0542L69.0187 30.9257C69.3904 30.1581 69.5654 29.3128 69.5654 28.4099H67.5654ZM67.2171 30.0572C67.003 30.5033 66.7073 30.8312 66.3249 31.0681L67.3782 32.7683C68.0994 32.3215 68.6484 31.6973 69.0202 30.9227L67.2171 30.0572ZM66.3216 31.0702C65.9501 31.3024 65.5078 31.4309 64.9619 31.4309V33.4309C65.8418 33.4309 66.6593 33.2176 67.3816 32.7662L66.3216 31.0702ZM64.9619 31.4309C64.1492 31.4309 63.5567 31.162 63.0922 30.6432L61.6022 31.9774C62.4755 32.9527 63.6262 33.4309 64.9619 33.4309V31.4309ZM63.0946 30.6459C62.6286 30.1217 62.3511 29.3885 62.3511 28.344H60.3511C60.3511 29.7603 60.7376 31.0047 61.5998 31.9746L63.0946 30.6459ZM62.3511 28.344V28.2487H60.3511V28.344H62.3511ZM61.7134 28.4099C61.7134 29.439 61.9515 30.3783 62.5257 31.1324L64.1169 29.9208C63.8805 29.6104 63.7134 29.1386 63.7134 28.4099H61.7134ZM62.5292 31.137C63.1325 31.9198 63.9745 32.3249 64.9619 32.3249V30.3249C64.5822 30.3249 64.3304 30.1978 64.1134 29.9162L62.5292 31.137ZM64.9619 32.3249C65.9556 32.3249 66.8015 31.9159 67.4008 31.1216L65.8043 29.9169C65.5931 30.1968 65.3452 30.3249 64.9619 30.3249V32.3249ZM67.4034 31.1181C67.9835 30.3424 68.2104 29.3454 68.2104 28.2487H66.2104C66.2104 29.0955 66.0322 29.6122 65.8017 29.9204L67.4034 31.1181ZM68.2104 28.2487C68.2104 27.221 67.9634 26.284 67.3792 25.5279L65.7966 26.7508C66.0424 27.0689 66.2104 27.5382 66.2104 28.2487H68.2104ZM67.3853 25.5359C66.7848 24.7425 65.942 24.3264 64.9473 24.3264V26.3264C65.3197 26.3264 65.5706 26.4523 65.7905 26.7428L67.3853 25.5359ZM64.9473 24.3264C63.9665 24.3264 63.135 24.7377 62.5365 25.5143L64.1207 26.7351C64.3425 26.4473 64.5901 26.3264 64.9473 26.3264V24.3264ZM62.5365 25.5143C61.9408 26.2873 61.7134 27.2985 61.7134 28.4099H63.7134C63.7134 27.5388 63.8961 27.0266 64.1207 26.7351L62.5365 25.5143ZM70.7993 25.3264L71.5873 25.9421L71.5892 25.9396L70.7993 25.3264ZM75.2671 25.1653L74.5066 25.8146L76.2671 27.8764V25.1653H75.2671ZM75.2671 21.0344V20.0344H74.2671V21.0344H75.2671ZM76.6221 21.0344H77.6221V20.0344H76.6221V21.0344ZM76.6221 32.2844V33.2844H77.6221V32.2844H76.6221ZM75.377 32.2844L74.3799 32.3617L74.4515 33.2844H75.377V32.2844ZM75.311 31.4348L76.308 31.3574L76.1149 28.8683L74.5363 30.8025L75.311 31.4348ZM70.7993 31.3029L70.0055 31.9112L70.008 31.9144L70.7993 31.3029ZM75.2671 30.1237L76.157 30.58L76.2671 30.3651V30.1237H75.2671ZM75.2671 26.4836H76.2671V26.2298L76.1461 26.0068L75.2671 26.4836ZM70.9351 28.2561C70.9351 27.1961 71.1849 26.4571 71.5873 25.9421L70.0114 24.7106C69.2614 25.6703 68.9351 26.8844 68.9351 28.2561H70.9351ZM71.5892 25.9396C71.9776 25.4393 72.4415 25.2131 73.0625 25.2131V23.2131C71.8183 23.2131 70.7733 23.7291 70.0094 24.7132L71.5892 25.9396ZM73.0625 25.2131C73.7343 25.2131 74.1772 25.4288 74.5066 25.8146L76.0276 24.5159C75.273 23.6322 74.2461 23.2131 73.0625 23.2131V25.2131ZM76.2671 25.1653V21.0344H74.2671V25.1653H76.2671ZM75.2671 22.0344H76.6221V20.0344H75.2671V22.0344ZM75.6221 21.0344V32.2844H77.6221V21.0344H75.6221ZM76.6221 31.2844H75.377V33.2844H76.6221V31.2844ZM76.374 32.207L76.308 31.3574L74.314 31.5121L74.3799 32.3617L76.374 32.207ZM74.5363 30.8025C74.2101 31.2022 73.7576 31.4309 73.0479 31.4309V33.4309C74.2717 33.4309 75.328 32.9955 76.0858 32.0671L74.5363 30.8025ZM73.0479 31.4309C72.4521 31.4309 71.9901 31.2085 71.5906 30.6915L70.008 31.9144C70.7707 32.9013 71.8077 33.4309 73.0479 33.4309V31.4309ZM71.5931 30.6947C71.1839 30.1608 70.9351 29.4115 70.9351 28.3586H68.9351C68.9351 29.7276 69.2624 30.9412 70.0055 31.9112L71.5931 30.6947ZM70.9351 28.3586V28.2561H68.9351V28.3586H70.9351ZM70.29 28.4099C70.29 29.4327 70.4996 30.3708 71.0393 31.1093L72.6541 29.9292C72.4515 29.6521 72.29 29.184 72.29 28.4099H70.29ZM71.0393 31.1093C71.6074 31.8867 72.4265 32.281 73.3848 32.281V30.281C73.0345 30.281 72.8281 30.1674 72.6541 29.9292L71.0393 31.1093ZM73.3848 32.281C73.968 32.281 74.5277 32.1485 75.0236 31.8436C75.5191 31.539 75.8906 31.0994 76.157 30.58L74.3772 29.6675C74.248 29.9195 74.1081 30.0586 73.9762 30.1398C73.8447 30.2206 73.6609 30.281 73.3848 30.281V32.281ZM76.2671 30.1237V26.4836H74.2671V30.1237H76.2671ZM76.1461 26.0068C75.8729 25.5032 75.4998 25.0791 75.0107 24.7857C74.521 24.4918 73.9717 24.363 73.3994 24.363V26.363C73.667 26.363 73.8489 26.4209 73.9817 26.5007C74.1152 26.5807 74.256 26.717 74.3881 26.9605L76.1461 26.0068ZM73.3994 24.363C72.4332 24.363 71.6064 24.7585 71.0366 25.5457L72.6567 26.7184C72.8291 26.4802 73.0375 26.363 73.3994 26.363V24.363ZM71.0366 25.5457C70.4885 26.303 70.29 27.3082 70.29 28.4099H72.29C72.29 27.4998 72.4627 26.9865 72.6567 26.7184L71.0366 25.5457Z" fill="black"/>
</svg>
